<svg width="264" height="264" viewBox="0 0 264 264" fill="none" xmlns="http://www.w3.org/2000/svg">
<g filter="url(#filter0_d_302_8)">
<rect width="256" height="256" transform="translate(4)" fill="#364FC7"/>
<path d="M98.568 190.76H75.016L68.232 217H55.304L78.984 127.4H94.216L119.176 217H105.608L98.568 190.76ZM77.832 178.6H95.752L86.536 146.6L77.832 178.6ZM164.276 175.4C164.276 171.304 163.039 168.232 160.564 166.184C158.175 164.051 155.103 162.984 151.348 162.984C147.423 162.984 143.711 163.923 140.212 165.8V217H128.692V152.872H139.316L140.212 154.92C141.919 153.981 143.967 153.256 146.356 152.744C148.745 152.147 151.22 151.848 153.78 151.848C158.132 151.848 161.887 152.616 165.044 154.152C168.457 155.688 171.103 157.992 172.98 161.064C174.943 164.136 175.924 168.019 175.924 172.712V217H164.276V175.4ZM201.012 138.92C199.305 138.92 197.769 138.28 196.404 137C195.124 135.635 194.484 134.099 194.484 132.392C194.484 130.771 195.124 129.32 196.404 128.04C197.769 126.76 199.305 126.12 201.012 126.12C202.719 126.12 204.169 126.76 205.364 128.04C206.644 129.235 207.284 130.685 207.284 132.392C207.284 134.099 206.644 135.635 205.364 137C204.084 138.28 202.633 138.92 201.012 138.92ZM194.868 152.872H206.516V217H194.868V152.872Z" fill="#DBE4FF"/>
<g filter="url(#filter1_d_302_8)">
<path d="M24.984 42.4H54.168C63.128 42.4 69.7413 45.3013 74.008 51.104C78.36 56.8213 80.536 64.032 80.536 72.736C80.536 95.6053 72.1307 107.04 55.32 107.04H39.064V132H24.984V42.4ZM51.096 93.6C55.96 93.6 59.5013 92.5333 61.72 90.4C64.024 88.2667 65.3893 85.8773 65.816 83.232C66.2427 80.5013 66.456 77.088 66.456 72.992C66.456 68.4693 65.816 65.0133 64.536 62.624C63.3413 60.1493 61.592 58.528 59.288 57.76C57.0693 56.9067 54.168 56.48 50.584 56.48H39.064V93.6H51.096ZM132.891 132C123.675 132.939 117.019 133.408 112.923 133.408C103.963 133.408 96.8377 131.744 91.547 128.416C86.2563 125.088 83.611 119.072 83.611 110.368V99.744C83.611 91.296 86.555 85.6213 92.443 82.72C95.259 81.3547 98.459 80.672 102.043 80.672C105.2 80.672 108.315 81.0987 111.387 81.952C114.459 82.8053 116.934 83.744 118.811 84.768C118.811 81.6107 117.531 79.4773 114.971 78.368C112.411 77.1733 109.126 76.576 105.115 76.576L106.267 66.848C114.459 66.848 120.475 68.1707 124.315 70.816C128.24 73.376 130.63 76.448 131.483 80.032C132.422 83.616 132.891 88.224 132.891 93.856V132ZM118.811 99.744C117.275 98.6347 115.099 97.6107 112.283 96.672C109.552 95.648 107.035 95.136 104.731 95.136C102.683 95.136 101.019 95.648 99.739 96.672C98.459 97.696 97.819 99.3173 97.819 101.536V108.576C97.819 116.341 102.384 120.224 111.515 120.224C114.16 120.224 116.592 120.011 118.811 119.584V99.744ZM156.188 114.336C156.188 115.872 156.956 117.323 158.492 118.688C160.113 120.053 162.545 120.736 165.788 120.736C168.604 120.736 170.78 120.053 172.316 118.688C173.852 117.237 174.62 115.573 174.62 113.696C174.62 111.051 173.639 109.088 171.676 107.808C169.799 106.528 166.727 105.12 162.46 103.584C158.791 102.389 155.761 101.195 153.372 100C150.983 98.8053 148.849 97.0133 146.972 94.624C145.095 92.2347 143.985 89.12 143.644 85.28C143.388 82.3787 143.943 79.4773 145.308 76.576C146.759 73.5893 149.148 71.1573 152.476 69.28C155.889 67.3173 160.241 66.336 165.532 66.336C168.263 66.336 170.652 66.6347 172.7 67.232C174.833 67.744 176.497 68.2987 177.692 68.896C178.887 69.4933 179.612 69.8773 179.868 70.048L175.772 83.104C175.601 82.9333 175.132 82.6347 174.364 82.208C173.681 81.696 172.572 81.2267 171.036 80.8C169.5 80.3733 167.665 80.16 165.532 80.16C160.924 80.16 158.62 81.44 158.62 84C158.62 84.512 158.705 85.024 158.876 85.536C159.132 86.7307 160.028 87.7547 161.564 88.608C163.1 89.376 165.361 90.3147 168.348 91.424C172.529 92.96 176.028 94.496 178.844 96.032C181.745 97.4827 184.22 99.7013 186.268 102.688C188.401 105.589 189.468 109.344 189.468 113.952C189.468 117.451 188.615 120.736 186.908 123.808C185.201 126.795 182.556 129.227 178.972 131.104C175.473 132.981 171.079 133.92 165.788 133.92C160.924 133.92 156.7 133.109 153.116 131.488C149.617 129.781 146.929 127.563 145.052 124.832C143.26 122.101 142.279 119.072 142.108 115.744L156.188 114.336ZM211.313 112.928C211.313 115.317 211.953 117.195 213.233 118.56C214.598 119.84 216.561 120.48 219.121 120.48C223.046 120.48 228.294 118.773 234.865 115.36L239.985 127.52C236.913 129.483 233.414 130.976 229.489 132C225.564 133.024 221.638 133.536 217.713 133.536C211.398 133.536 206.364 132 202.609 128.928C198.94 125.771 197.105 121.077 197.105 114.848V88.608C197.105 81.696 199.238 76.32 203.505 72.48C207.857 68.64 213.574 66.72 220.657 66.72C227.74 66.72 233.244 68.64 237.169 72.48C241.18 76.2347 243.185 81.4827 243.185 88.224V107.68L211.313 109.344V112.928ZM228.977 88.48C228.977 85.92 228.166 83.9573 226.545 82.592C224.924 81.2267 222.918 80.544 220.529 80.544C217.286 80.544 214.94 81.3973 213.489 83.104C212.038 84.8107 211.313 86.688 211.313 88.736V96.416L228.977 95.264V88.48Z" fill="#EDF2FF"/>
</g>
</g>
<defs>
<filter id="filter0_d_302_8" x="0" y="0" width="264" height="264" filterUnits="userSpaceOnUse" color-interpolation-filters="sRGB">
<feFlood flood-opacity="0" result="BackgroundImageFix"/>
<feColorMatrix in="SourceAlpha" type="matrix" values="0 0 0 0 0 0 0 0 0 0 0 0 0 0 0 0 0 0 127 0" result="hardAlpha"/>
<feOffset dy="4"/>
<feGaussianBlur stdDeviation="2"/>
<feComposite in2="hardAlpha" operator="out"/>
<feColorMatrix type="matrix" values="0 0 0 0 0 0 0 0 0 0 0 0 0 0 0 0 0 0 0.25 0"/>
<feBlend mode="normal" in2="BackgroundImageFix" result="effect1_dropShadow_302_8"/>
<feBlend mode="normal" in="SourceGraphic" in2="effect1_dropShadow_302_8" result="shape"/>
</filter>
<filter id="filter1_d_302_8" x="20.984" y="42.4" width="226.201" height="99.52" filterUnits="userSpaceOnUse" color-interpolation-filters="sRGB">
<feFlood flood-opacity="0" result="BackgroundImageFix"/>
<feColorMatrix in="SourceAlpha" type="matrix" values="0 0 0 0 0 0 0 0 0 0 0 0 0 0 0 0 0 0 127 0" result="hardAlpha"/>
<feOffset dy="4"/>
<feGaussianBlur stdDeviation="2"/>
<feComposite in2="hardAlpha" operator="out"/>
<feColorMatrix type="matrix" values="0 0 0 0 0 0 0 0 0 0 0 0 0 0 0 0 0 0 0.25 0"/>
<feBlend mode="normal" in2="BackgroundImageFix" result="effect1_dropShadow_302_8"/>
<feBlend mode="normal" in="SourceGraphic" in2="effect1_dropShadow_302_8" result="shape"/>
</filter>
</defs>
</svg>
